<svg width="100" height="100" viewBox="0 0 100 100" fill="none" xmlns="http://www.w3.org/2000/svg">
<rect width="100" height="100" rx="50" fill="#BAE6FD"/>
<path d="M23.1662 29.3223C22.8314 29.699 22.612 30.3435 22.381 30.8055C21.9297 31.7081 21.3915 32.516 21.0461 33.4752C20.5447 34.8682 19.9103 36.2018 19.5542 37.6456C19.1459 39.3017 18.8921 40.999 18.612 42.6797C18.1372 45.5282 18.1077 48.3332 18.1409 51.2211C18.1723 53.9536 19.4607 56.599 19.9905 59.2477C20.2111 60.3509 20.6194 61.4688 21.2119 62.4235C21.4222 62.7623 21.6574 63.1059 21.7616 63.4704C21.9321 64.0673 22.624 64.8999 23.0877 65.3637C23.7056 65.9816 22.6378 67.3237 22.2938 67.8851C20.8165 70.2953 19.3759 72.642 18.1758 75.2137C17.3681 76.9444 16.4015 78.6641 15.7067 80.4398C15.4848 81.0068 15.3303 81.7504 15 82.2458" stroke="black" stroke-width="3" stroke-linecap="round"/>
<path d="M80.4869 29.9505C80.4869 31.0599 80.6496 31.7954 81.1848 32.7685C81.6332 33.5837 82.0181 34.3883 82.2492 35.29C82.5738 36.5558 82.9684 37.7699 83.2351 39.0503C83.6446 41.0158 83.3137 43.3183 83.3137 45.3233C83.3137 48.3012 82.8525 51.193 82.2144 54.1002C81.9045 55.5117 81.821 57.1528 81.1848 58.4625C80.7013 59.4581 80.193 60.5371 79.6144 61.4463C78.8194 62.6957 77.683 64.2005 77.3547 65.6777C77.1605 66.552 77.5683 67.1164 78.0614 67.8851C78.9899 69.3324 79.8724 70.8284 80.8184 72.2823C82.813 75.3477 84.9506 78.5858 85.8263 82.0887" stroke="black" stroke-width="3" stroke-linecap="round"/>
<path d="M80.9728 29.4813C80.9728 23.8141 81.3355 17.572 77.2777 13.0069C74.4806 9.86025 68.8099 9.06327 65.2146 11.1878C63.6383 12.1192 62.7348 14.1027 62.3495 15.8152C61.9801 17.457 61.6634 19.1222 61.4854 20.795C61.4495 21.133 61.5227 23.4494 61.133 23.5237C59.7329 23.7904 58.1425 23.5231 56.7102 23.6487C54.8825 23.8091 53.0585 23.882 51.2301 24.0012C49.2426 24.1308 47.2894 24.5119 45.2953 24.5697C44.2356 24.6004 43.0189 24.6523 41.9867 24.8766C40.1429 25.2775 40.9256 24.2337 40.4405 22.8188C39.5161 20.1226 38.7175 17.3338 37.4503 14.7692C36.7638 13.3799 35.9593 11.1206 34.1873 10.8581C32.4289 10.5976 30.6545 10.6192 28.8777 10.6534C24.7373 10.733 23.3153 15.7879 23.2612 19.0896C23.2322 20.8553 22.7935 22.7067 23.0679 24.4901C23.2488 25.6659 23.0955 26.9378 23.4658 28.0487" stroke="black" stroke-width="3" stroke-linecap="round"/>
<path d="M56.923 52.4039C55.9392 51.5185 53.8509 48.727 52.5277 50.0502C52.0094 50.5685 50.8858 51.1796 50.5427 51.78C50.2434 52.3038 49.8378 52.9791 49.2666 53.1695" stroke="black" stroke-width="3" stroke-linecap="round"/>
<path d="M60.4205 42.3423H70.5702" stroke="black" stroke-width="3" stroke-linecap="round"/>
<path d="M66.1142 53.2347C66.1142 51.3375 65.8667 49.4415 65.8667 47.596C65.8667 46.4807 66.0996 45.0362 65.6191 44.0753" stroke="black" stroke-width="3" stroke-linecap="round"/>
<path d="M32.6946 42.0948H42.8443" stroke="black" stroke-width="3" stroke-linecap="round"/>
<path d="M38.8834 52.9872C38.8834 49.7108 38.3883 46.5393 38.3883 43.3326" stroke="black" stroke-width="3" stroke-linecap="round"/>
</svg>
