<svg width="64" height="64" viewBox="0 0 64 64" fill="none" xmlns="http://www.w3.org/2000/svg">
<rect width="64" height="64" rx="32" fill="#BAE6FD"/>
<path d="M22.9572 32.2816C22.9572 32.0113 23.0655 31.5712 22.8065 31.4273C22.4658 31.238 22.1532 31.4051 22.1532 31.7791C22.1532 32.2535 22.0983 32.2501 22.4994 32.4324C22.893 32.6113 23.0661 32.4492 23.1582 32.0806" stroke="black" stroke-width="1.92" stroke-linecap="round"/>
<path d="M38.5357 31.377C38.519 31.5113 38.3063 31.7362 38.4855 31.8796C38.6096 31.9789 38.8666 32.0532 38.9322 31.8237C39.0686 31.3461 38.0332 30.9766 38.0332 31.6785" stroke="black" stroke-width="1.92" stroke-linecap="round"/>
<path d="M12.9063 21.3263C12.692 21.5674 12.5516 21.9799 12.4038 22.2755C12.115 22.8532 11.7705 23.3702 11.5495 23.9842C11.2285 24.8757 10.8225 25.7291 10.5946 26.6532C10.3333 27.7131 10.1709 28.7993 9.9916 29.875C9.68777 31.698 9.66884 33.4932 9.69008 35.3415C9.71018 37.0903 10.5348 38.7834 10.8738 40.4785C11.015 41.1846 11.2763 41.9001 11.6556 42.511C11.7902 42.7279 11.9407 42.9478 12.0073 43.1811C12.1165 43.5631 12.5593 44.096 12.8561 44.3928C13.2515 44.7882 12.5682 45.6472 12.3479 46.0065C11.4025 47.549 10.4805 49.0509 9.71242 50.6968C9.19553 51.8044 8.5769 52.905 8.13222 54.0415C7.99022 54.4043 7.89131 54.8802 7.67993 55.1973" stroke="black" stroke-width="1.92" stroke-linecap="round"/>
<path d="M49.5916 21.7283C49.5916 22.4383 49.6958 22.9091 50.0383 23.5319C50.3253 24.0536 50.5716 24.5685 50.7195 25.1456C50.9273 25.9557 51.1798 26.7328 51.3505 27.5522C51.6126 28.8101 51.4008 30.2837 51.4008 31.5669C51.4008 33.4727 51.1056 35.3235 50.6972 37.1841C50.4989 38.0875 50.4455 39.1378 50.0383 39.976C49.7288 40.6132 49.4036 41.3037 49.0333 41.8856C48.5244 42.6852 47.7972 43.6483 47.5871 44.5938C47.4627 45.1533 47.7238 45.5145 48.0394 46.0064C48.6336 46.9327 49.1983 47.8902 49.8038 48.8207C51.0804 50.7825 52.4484 52.8549 53.0089 55.0968" stroke="black" stroke-width="1.92" stroke-linecap="round"/>
<path d="M49.9025 21.428C49.9025 17.801 50.1347 13.8061 47.5377 10.8844C45.7476 8.87057 42.1183 8.3605 39.8173 9.72018C38.8085 10.3163 38.2302 11.5857 37.9836 12.6817C37.7472 13.7325 37.5445 14.7982 37.4306 15.8688C37.4076 16.0851 37.4545 17.5677 37.2051 17.6152C36.309 17.7858 35.2912 17.6148 34.3745 17.6952C33.2048 17.7978 32.0374 17.8445 30.8672 17.9208C29.5952 18.0037 28.3452 18.2476 27.0689 18.2846C26.3907 18.3043 25.612 18.3375 24.9515 18.4811C23.7714 18.7376 24.2723 18.0696 23.9619 17.164C23.3703 15.4385 22.8592 13.6536 22.0482 12.0123C21.6088 11.1231 21.0939 9.67718 19.9598 9.50916C18.8345 9.34245 17.6988 9.35632 16.5617 9.37819C13.9118 9.42915 13.0017 12.6643 12.9671 14.7773C12.9486 15.9074 12.6678 17.0923 12.8434 18.2337C12.9592 18.9862 12.8611 19.8002 13.0981 20.5112" stroke="black" stroke-width="1.92" stroke-linecap="round"/>
<path d="M34.5107 36.0985C33.8811 35.5318 32.5445 33.7453 31.6977 34.5922C31.366 34.9239 30.6469 35.315 30.4273 35.6992C30.2357 36.0344 29.9762 36.4666 29.6106 36.5885" stroke="black" stroke-width="1.92" stroke-linecap="round"/>
</svg>
