<svg width="64" height="65" viewBox="0 0 64 65" fill="none" xmlns="http://www.w3.org/2000/svg">
<rect y="0.52002" width="64" height="64" rx="32" fill="#BAE6FD"/>
<path d="M14.8264 19.2863C14.6121 19.5274 14.4717 19.9399 14.3239 20.2356C14.035 20.8132 13.6905 21.3303 13.4695 21.9442C13.1486 22.8357 12.7426 23.6892 12.5147 24.6132C12.2534 25.6731 12.091 26.7594 11.9117 27.835C11.6078 29.658 11.5889 31.4533 11.6102 33.3015C11.6303 35.0503 12.4549 36.7434 12.7939 38.4386C12.9351 39.1446 13.1964 39.8601 13.5756 40.471C13.7102 40.6879 13.8608 40.9078 13.9274 41.1411C14.0366 41.5231 14.4794 42.056 14.7761 42.3528C15.1716 42.7482 14.4882 43.6072 14.268 43.9665C13.3226 45.509 12.4006 47.0109 11.6325 48.6568C11.1156 49.7644 10.497 50.8651 10.0523 52.0015C9.9103 52.3644 9.81138 52.8403 9.60001 53.1573" stroke="black" stroke-width="1.92" stroke-linecap="round"/>
<path d="M51.5116 19.6884C51.5116 20.3984 51.6158 20.8691 51.9583 21.4919C52.2453 22.0136 52.4916 22.5286 52.6395 23.1056C52.8473 23.9157 53.0998 24.6928 53.2705 25.5122C53.5326 26.7701 53.3207 28.2437 53.3207 29.5269C53.3207 31.4328 53.0256 33.2835 52.6172 35.1442C52.4189 36.0475 52.3654 37.0978 51.9583 37.936C51.6488 38.5732 51.3235 39.2638 50.9532 39.8457C50.4444 40.6453 49.7172 41.6083 49.507 42.5538C49.3827 43.1133 49.6437 43.4745 49.9593 43.9665C50.5535 44.8928 51.1183 45.8502 51.7238 46.7807C53.0003 48.7425 54.3684 50.815 54.9289 53.0568" stroke="black" stroke-width="1.92" stroke-linecap="round"/>
<path d="M51.8226 19.3881C51.8226 15.7611 52.0547 11.7661 49.4577 8.84446C47.6676 6.8306 44.0384 6.32054 41.7374 7.68022C40.7285 8.27634 40.1503 9.54576 39.9037 10.6417C39.6673 11.6925 39.4646 12.7582 39.3507 13.8288C39.3277 14.0452 39.3745 15.5277 39.1251 15.5752C38.2291 15.7459 37.2112 15.5748 36.2946 15.6552C35.1248 15.7578 33.9575 15.8045 32.7873 15.8808C31.5152 15.9638 30.2652 16.2076 28.989 16.2446C28.3108 16.2643 27.5321 16.2975 26.8715 16.4411C25.6915 16.6976 26.1924 16.0296 25.8819 15.1241C25.2903 13.3985 24.7792 11.6137 23.9682 9.97231C23.5288 9.08315 23.014 7.63722 21.8798 7.4692C20.7545 7.30248 19.6189 7.31636 18.4817 7.33822C15.8319 7.38918 14.9218 10.6243 14.8871 12.7374C14.8686 13.8674 14.5878 15.0523 14.7634 16.1937C14.8792 16.9462 14.7811 17.7602 15.0181 18.4712" stroke="black" stroke-width="1.92" stroke-linecap="round"/>
<path d="M36.4307 34.0585C35.8011 33.4918 34.4646 31.7053 33.6177 32.5522C33.286 32.8839 32.5669 33.275 32.3473 33.6592C32.1558 33.9944 31.8962 34.4266 31.5306 34.5485" stroke="black" stroke-width="1.92" stroke-linecap="round"/>
<path d="M38.6691 27.6191H45.1649" stroke="black" stroke-width="1.92" stroke-linecap="round"/>
<path d="M42.3131 34.5903C42.3131 33.376 42.1547 32.1626 42.1547 30.9815C42.1547 30.2677 42.3038 29.3432 41.9962 28.7282" stroke="black" stroke-width="1.92" stroke-linecap="round"/>
<path d="M20.9245 27.4607H27.4203" stroke="black" stroke-width="1.92" stroke-linecap="round"/>
<path d="M24.8854 34.4318C24.8854 32.3349 24.5685 30.3052 24.5685 28.2529" stroke="black" stroke-width="1.92" stroke-linecap="round"/>
</svg>
