<svg width="100" height="100" viewBox="0 0 100 100" fill="none" xmlns="http://www.w3.org/2000/svg">
<rect width="100" height="100" rx="50" fill="#F5D0FE"/>
<path d="M39.6491 50.8245C41.2586 50.6233 40.2411 47.3206 38.7468 48.8149C37.1842 50.3776 40.2637 51.931 39.28 50.4554" stroke="black" stroke-width="2.91559" stroke-linecap="round"/>
<path d="M63.6411 47.5026C63.7747 48.5707 65.7928 47.1335 64.0103 47.1335C62.4727 47.1335 63.6111 48.845 64.2973 48.1588C64.9836 47.4726 63.272 46.3341 63.272 47.8717C63.272 48.9404 64.7485 48.9404 64.7485 47.8717" stroke="black" stroke-width="2.91559" stroke-linecap="round"/>
<path d="M59.581 57.0994C57.4599 57.0994 55.7341 53.0079 54.0444 52.0139C52.9284 51.3574 53.6944 52.0919 53.1011 52.8547C52.5514 53.5614 51.8308 54.116 51.3786 54.8848C50.7216 56.0016 49.4306 56.7301 48.8768 57.8376" stroke="black" stroke-width="2.91559" stroke-linecap="round"/>
<path d="M63.6412 27.9398C65.8268 25.9971 67.9726 23.6668 69.9161 21.4803C70.5983 20.7128 74.4675 19.3153 75.0836 20.3935C76.0271 22.0446 76.506 24.571 76.5601 26.4633C76.5927 27.6041 76.3374 28.9679 76.6421 30.0724C76.7888 30.6043 76.6408 32.6548 77.0112 33.0253C77.3895 33.4035 78.0552 32.7382 78.5902 32.7382C79.35 32.7382 79.8848 33.4048 80.4357 33.8455C82.1515 35.2181 83.5322 37.4576 84.8855 39.1976C87.519 42.5835 86.526 47.9217 86.526 51.9319" stroke="black" stroke-width="2.91559" stroke-linecap="round"/>
<path d="M86.526 51.9319H98.3375" stroke="black" stroke-width="2.91559" stroke-linecap="round"/>
<path d="M85.4187 57.4686C88.1325 57.7399 89.7987 60.2734 90.5862 62.6361" stroke="black" stroke-width="2.91559" stroke-linecap="round"/>
<path d="M2 50.4554H11.2277" stroke="black" stroke-width="2.91559" stroke-linecap="round"/>
<path d="M10.4895 57.4686C7.48105 57.4686 5.69249 58.0215 3.1073 59.3141" stroke="black" stroke-width="2.91559" stroke-linecap="round"/>
<path d="M7.17554 77.675C7.17554 76.8795 7.34866 76.7265 7.89428 76.1234C9.13405 74.7531 10.5917 73.2921 12.1155 72.2445C13.636 71.1991 14.7043 69.7355 16.0058 68.434" stroke="black" stroke-width="3" stroke-linecap="round"/>
<path d="M62.827 28.3896C59.9825 28.3896 57.1379 28.3896 54.2934 28.3896C50.1335 28.3896 46.1053 28.8797 41.9948 29.4278C39.8875 29.7088 37.8555 30.8833 35.9254 31.5726C35.0294 31.8926 33.7486 31.9491 32.9478 32.394C32.0069 32.9167 31.0424 32.3971 30.2439 31.8464C27.1121 29.6865 19.006 21.16 15.4355 27.4085C14.9412 28.2735 14.8565 29.6221 14.6825 30.5915C14.3786 32.2849 14.3631 34.1088 14.3631 35.828C14.3631 37.0388 14.2994 38.2688 14.3631 39.4788C14.3852 39.8994 14.6911 40.2278 14.7624 40.6197C14.88 41.2665 14.6193 41.9722 14.5228 42.6048C14.3847 43.5098 14.1577 44.3188 14.1577 45.2288" stroke="black" stroke-width="3" stroke-linecap="round"/>
<path d="M83.7733 62.2733C82.8364 63.3273 81.9311 64.5429 81.1037 65.7187C79.7843 67.5936 78.2199 68.0635 79.5064 70.3278C80.995 72.9477 82.4787 75.5782 83.5223 78.428C83.9874 79.6982 84.4482 80.9383 84.8913 82.2042C85.0833 82.7528 84.9022 84.1948 85.4161 84.4517" stroke="black" stroke-width="3" stroke-linecap="round"/>
<path d="M14.7737 61.4519C14.7737 62.4755 14.4971 63.9223 14.865 64.8745C15.2937 65.984 15.9171 66.8189 16.4166 67.8179" stroke="black" stroke-width="3" stroke-linecap="round"/>
<path d="M33.5344 54.7831C33.5344 56.4233 34.8851 57.7425 34.8851 59.3981C34.8851 60.1347 34.9297 62.5935 33.7595 62.6623C32.4145 62.7414 31.0162 63.4573 30.5078 61.7869C29.7227 59.2074 31.6603 57.2538 32.4088 55.0083" stroke="black" stroke-width="3" stroke-linecap="round"/>
<path d="M31.5083 68.5154C31.8609 71.6885 35.8881 77.2098 30.4953 78.4082C29.6042 78.6062 28.7506 78.3259 27.9564 78.0205C27.0412 77.6685 27.231 76.903 27.231 76.0695C27.231 73.8511 28.8399 70.9587 30.3827 69.4159" stroke="black" stroke-width="3" stroke-linecap="round"/>
<path d="M68.653 61.7618C73.8856 61.7618 68.4279 55.0826 68.4279 52.9822C67.884 54.0699 67.6341 55.4539 66.9021 56.484C66.3056 57.3236 65.5014 57.9374 65.5014 59.0479C65.5014 59.8729 65.3062 60.8034 66.1767 61.2616C66.9509 61.6691 67.8004 61.7618 68.653 61.7618Z" stroke="black" stroke-width="3" stroke-linecap="round"/>
<path d="M69.5535 68.5154C69.5535 69.8994 70.3567 70.7274 71.0042 71.9047C71.7104 73.1886 71.8047 74.3091 71.8047 75.7193C71.8047 77.9839 70.1315 79.1748 67.9276 79.0961C66.9971 79.0628 65.9515 78.6378 65.9515 77.6203C65.9515 76.9917 65.7137 75.8654 66.2892 75.4816C67.3368 74.7833 67.1123 72.3412 67.5274 71.2669C67.9068 70.2848 67.6671 68.9657 68.8781 68.9657" stroke="black" stroke-width="3" stroke-linecap="round"/>
</svg>
