<svg width="65" height="64" viewBox="0 0 65 64" fill="none" xmlns="http://www.w3.org/2000/svg">
<g clip-path="url(#clip0_26_397)">
<rect x="0.919983" width="64" height="64" rx="32" fill="#F5D0FE"/>
<path d="M26.2954 32.5277C27.3255 32.3989 26.6743 30.2852 25.718 31.2415C24.7179 32.2416 26.6888 33.2358 26.0592 32.2914" stroke="black" stroke-width="1.86598" stroke-linecap="round"/>
<path d="M41.6503 30.4017C41.7358 31.0853 43.0274 30.1655 41.8866 30.1655C40.9025 30.1655 41.6311 31.2608 42.0703 30.8216C42.5095 30.3825 41.4141 29.6539 41.4141 30.6379C41.4141 31.3219 42.359 31.3219 42.359 30.6379" stroke="black" stroke-width="1.86598" stroke-linecap="round"/>
<path d="M39.0518 36.5436C37.6943 36.5436 36.5898 33.925 35.5084 33.2889C34.7942 32.8688 35.2844 33.3388 34.9047 33.827C34.5529 34.2793 34.0917 34.6343 33.8023 35.1262C33.3818 35.8411 32.5556 36.3073 32.2012 37.0161" stroke="black" stroke-width="1.86598" stroke-linecap="round"/>
<path d="M41.6504 17.8814C43.0491 16.6381 44.4224 15.1467 45.6663 13.7474C46.1029 13.2562 48.5792 12.3618 48.9735 13.0518C49.5774 14.1086 49.8838 15.7254 49.9184 16.9365C49.9393 17.6666 49.7759 18.5395 49.9709 19.2463C50.0648 19.5868 49.9701 20.8991 50.2072 21.1362C50.4493 21.3783 50.8753 20.9524 51.2177 20.9524C51.704 20.9524 52.0463 21.3791 52.3989 21.6611C53.4969 22.5396 54.3806 23.9728 55.2467 25.0865C56.9322 27.2534 56.2967 30.6699 56.2967 33.2364" stroke="black" stroke-width="1.86598" stroke-linecap="round"/>
<path d="M56.2966 33.2364H63.856" stroke="black" stroke-width="1.86598" stroke-linecap="round"/>
<path d="M55.588 36.7799C57.3248 36.9536 58.3911 38.575 58.8952 40.0871" stroke="black" stroke-width="1.86598" stroke-linecap="round"/>
<path d="M2.20001 32.2915H8.10576" stroke="black" stroke-width="1.86598" stroke-linecap="round"/>
<path d="M7.63323 36.7799C5.70783 36.7799 4.56315 37.1338 2.90863 37.9611" stroke="black" stroke-width="1.86598" stroke-linecap="round"/>
<path d="M5.51233 49.712C5.51233 49.2028 5.62313 49.1049 5.97233 48.719C6.76578 47.842 7.69865 46.9069 8.6739 46.2364C9.64701 45.5674 10.3307 44.6307 11.1637 43.7977" stroke="black" stroke-width="1.92" stroke-linecap="round"/>
<path d="M41.1293 18.1694C39.3088 18.1694 37.4882 18.1694 35.6677 18.1694C33.0054 18.1694 30.4273 18.483 27.7967 18.8338C26.4479 19.0136 25.1475 19.7653 23.9122 20.2065C23.3388 20.4113 22.5191 20.4475 22.0065 20.7322C21.4044 21.0667 20.7871 20.7342 20.2761 20.3817C18.2717 18.9994 13.0838 13.5424 10.7987 17.5414C10.4823 18.0951 10.4281 18.9582 10.3168 19.5786C10.1222 20.6624 10.1123 21.8297 10.1123 22.93C10.1123 23.7048 10.0716 24.492 10.1123 25.2665C10.1265 25.5356 10.3223 25.7458 10.3679 25.9966C10.4431 26.4106 10.2763 26.8623 10.2145 27.2671C10.1262 27.8463 9.9809 28.3641 9.9809 28.9464" stroke="black" stroke-width="1.92" stroke-linecap="round"/>
<path d="M54.5349 39.8549C53.9353 40.5295 53.3559 41.3074 52.8263 42.06C51.9819 43.2599 50.9807 43.5606 51.8041 45.0098C52.7568 46.6865 53.7063 48.37 54.3742 50.1939C54.6719 51.0068 54.9669 51.8005 55.2504 52.6107C55.3733 52.9618 55.2574 53.8847 55.5863 54.0491" stroke="black" stroke-width="1.92" stroke-linecap="round"/>
<path d="M10.3752 39.3292C10.3752 39.9843 10.1982 40.9103 10.4336 41.5197C10.708 42.2298 11.1069 42.7641 11.4266 43.4035" stroke="black" stroke-width="1.92" stroke-linecap="round"/>
<path d="M22.382 35.0612C22.382 36.1109 23.2465 36.9552 23.2465 38.0148C23.2465 38.4862 23.275 40.0598 22.5261 40.1039C21.6653 40.1545 20.7703 40.6126 20.445 39.5436C19.9425 37.8928 21.1826 36.6425 21.6616 35.2053" stroke="black" stroke-width="1.92" stroke-linecap="round"/>
<path d="M21.0853 43.8499C21.3109 45.8806 23.8884 49.4142 20.437 50.1812C19.8667 50.3079 19.3203 50.1286 18.8121 49.9331C18.2264 49.7078 18.3478 49.2179 18.3478 48.6844C18.3478 47.2647 19.3775 45.4135 20.3649 44.4262" stroke="black" stroke-width="1.92" stroke-linecap="round"/>
<path d="M44.8579 39.5276C48.2067 39.5276 44.7138 35.2528 44.7138 33.9086C44.3657 34.6047 44.2058 35.4904 43.7373 36.1498C43.3555 36.6871 42.8408 37.0799 42.8408 37.7906C42.8408 38.3186 42.7159 38.9142 43.2731 39.2074C43.7685 39.4682 44.3122 39.5276 44.8579 39.5276Z" stroke="black" stroke-width="1.92" stroke-linecap="round"/>
<path d="M45.4342 43.8499C45.4342 44.7356 45.9483 45.2655 46.3627 46.019C46.8146 46.8407 46.8749 47.5578 46.8749 48.4603C46.8749 49.9097 45.8041 50.6718 44.3936 50.6215C43.7981 50.6002 43.129 50.3282 43.129 49.677C43.129 49.2746 42.9767 48.5538 43.3451 48.3082C44.0155 47.8613 43.8718 46.2983 44.1375 45.6108C44.3803 44.9823 44.2269 44.138 45.002 44.138" stroke="black" stroke-width="1.92" stroke-linecap="round"/>
</g>
<defs>
<clipPath id="clip0_26_397">
<rect x="0.919983" width="64" height="64" rx="32" fill="white"/>
</clipPath>
</defs>
</svg>
