<svg width="64" height="64" viewBox="0 0 64 64" fill="none" xmlns="http://www.w3.org/2000/svg">
<rect width="64" height="64" rx="32" fill="#F5D0FE"/>
<path d="M25.3754 36.0342C26.4055 35.9038 25.7543 33.7633 24.798 34.7317C23.7979 35.7445 25.7688 36.7512 25.1392 35.7949" stroke="black" stroke-width="1.86598" stroke-linecap="round"/>
<path d="M40.7303 33.8812C40.8158 34.5734 42.1074 33.6419 40.9666 33.6419C39.9825 33.6419 40.7111 34.7512 41.1503 34.3064C41.5895 33.8617 40.4941 33.1239 40.4941 34.1204C40.4941 34.813 41.439 34.813 41.439 34.1204" stroke="black" stroke-width="1.86598" stroke-linecap="round"/>
<path d="M38.1318 40.1009C36.7743 40.1009 35.6698 37.4491 34.5884 36.8049C33.8742 36.3795 34.3644 36.8555 33.9847 37.3498C33.6329 37.8079 33.1717 38.1673 32.8823 38.6655C32.4618 39.3894 31.6356 39.8615 31.2812 40.5793" stroke="black" stroke-width="1.86598" stroke-linecap="round"/>
<path d="M40.7304 21.2025C42.1291 19.9434 43.5024 18.4332 44.7463 17.0161C45.1829 16.5187 47.6592 15.6129 48.0535 16.3117C48.6574 17.3818 48.9638 19.0192 48.9984 20.2456C49.0193 20.9849 48.8559 21.8688 49.0509 22.5846C49.1449 22.9294 49.0501 24.2583 49.2872 24.4984C49.5293 24.7436 49.9553 24.3123 50.2977 24.3123C50.784 24.3123 51.1263 24.7444 51.4789 25.03C52.577 25.9196 53.4606 27.371 54.3267 28.4987C56.0122 30.6931 55.3767 34.1528 55.3767 36.7518" stroke="black" stroke-width="1.86598" stroke-linecap="round"/>
<path d="M55.3766 36.7518H62.936" stroke="black" stroke-width="1.86598" stroke-linecap="round"/>
<path d="M54.668 40.3401C56.4048 40.516 57.4711 42.1579 57.9752 43.6892" stroke="black" stroke-width="1.86598" stroke-linecap="round"/>
<path d="M1.28 35.7949H7.18575" stroke="black" stroke-width="1.86598" stroke-linecap="round"/>
<path d="M6.71328 40.3401C4.78788 40.3401 3.6432 40.6985 1.98868 41.5363" stroke="black" stroke-width="1.86598" stroke-linecap="round"/>
<path d="M4.59235 53.436C4.59235 52.9204 4.70314 52.8212 5.05234 52.4304C5.84579 51.5423 6.77867 50.5954 7.75391 49.9164C8.72702 49.2389 9.41075 48.2904 10.2437 47.4468" stroke="black" stroke-width="1.92" stroke-linecap="round"/>
<path d="M40.2093 21.4941C38.3888 21.4941 36.5683 21.4941 34.7478 21.4941C32.0855 21.4941 29.5074 21.8117 26.8767 22.1669C25.528 22.349 24.2275 23.1102 22.9923 23.557C22.4189 23.7644 21.5991 23.801 21.0866 24.0893C20.4844 24.4281 19.8671 24.0913 19.3561 23.7344C17.3518 22.3346 12.1639 16.8085 9.87872 20.8582C9.56236 21.4188 9.50816 22.2929 9.39681 22.9211C9.20229 24.0186 9.19237 25.2007 9.19237 26.3149C9.19237 27.0996 9.15161 27.8968 9.19237 28.681C9.20654 28.9536 9.40233 29.1664 9.44793 29.4204C9.5232 29.8396 9.35635 30.297 9.29459 30.7069C9.20624 31.2935 9.06094 31.8178 9.06094 32.4075" stroke="black" stroke-width="1.92" stroke-linecap="round"/>
<path d="M53.6149 43.4541C53.0153 44.1372 52.4359 44.925 51.9063 45.6871C51.0619 46.9022 50.0607 47.2067 50.8841 48.6742C51.8368 50.3722 52.7864 52.077 53.4543 53.924C53.752 54.7472 54.0469 55.5509 54.3304 56.3714C54.4533 56.7269 54.3374 57.6614 54.6663 57.828" stroke="black" stroke-width="1.92" stroke-linecap="round"/>
<path d="M9.45519 42.9218C9.45519 43.5852 9.27816 44.5228 9.5136 45.1399C9.78795 45.859 10.1869 46.4001 10.5066 47.0476" stroke="black" stroke-width="1.92" stroke-linecap="round"/>
</svg>
