<svg width="100" height="100" viewBox="0 0 100 100" fill="none" xmlns="http://www.w3.org/2000/svg">
<rect width="100" height="100" rx="50" fill="#FED7AA"/>
<path d="M67.1626 62.8112C65.2473 62.8112 64.2332 63.0507 63.6259 65.0245C63.0677 66.8385 64.0486 66.904 65.1546 67.8995C66.1356 68.7823 68.2274 68.0211 68.9651 67.2834C69.5769 66.6716 70.2177 63.4273 68.8054 63.4273" stroke="black" stroke-width="3" stroke-linecap="round"/>
<path d="M46.0109 61.3738C44.576 61.3738 43.838 62.0858 43.752 63.6327C43.6739 65.0382 44.6273 66.3023 46.1022 66.3023C48.88 66.3023 49.535 61.3738 46.4216 61.3738" stroke="black" stroke-width="3" stroke-linecap="round"/>
<path d="M64.493 15.374C61.9907 15.374 59.4884 15.374 56.9861 15.374C55.2558 15.374 53.5255 15.374 51.7952 15.374C51.2583 15.374 50.5916 15.2659 50.0725 15.4197C49.4545 15.6028 48.6823 15.7847 48.0645 15.7847C47.4752 15.7847 45.9216 12.2195 45.6459 11.5179C44.8308 9.44303 44.0601 8.92682 41.9495 9.00799C40.1295 9.07799 39.6806 12.0753 39.4852 13.3205C39.2974 14.5178 39.2342 15.801 39.2342 17.0169C39.2342 17.1446 35.0311 16.8975 34.5567 16.8572C32.771 16.7052 30.2126 16.4162 28.5557 17.2222C27.351 17.8083 26.2169 18.339 25.0647 18.9792C24.1313 19.4977 22.704 20.621 22.4407 21.7401C22.2503 22.5494 22.1821 23.8314 22.9883 24.25C24.7414 25.1602 26.2303 25.878 28.145 26.3035C28.6146 26.4079 30.1488 26.7681 30.4039 26.2579" stroke="black" stroke-width="3" stroke-linecap="round"/>
<path d="M64.6984 15.7847C64.6984 14.2774 65.3481 10.7243 67.2083 10.0804C68.6453 9.58298 70.1576 9.62406 71.6691 9.62406C73.3949 9.62406 73.118 12.4844 73.118 13.6057C73.118 13.9114 72.9307 15.7669 73.3233 15.7847C76.4421 15.9265 79.0887 16.5559 82.0623 17.3819C83.2362 17.708 84.5534 18.4335 85.6447 18.9792C86.9239 19.6188 86.8547 21.4645 87.0707 22.6527C87.5582 25.3339 81.8262 25.6418 80.2027 25.6418C78.86 25.6418 79.4257 26.3212 79.484 27.3987C79.5641 28.8813 80.1108 30.7319 80.5564 32.1676C81.0996 33.9178 80.9215 35.8499 80.9215 37.6665C80.9215 40.6634 81.1268 43.6708 81.1268 46.6794C81.1268 48.6473 80.5754 50.034 80.1457 51.8817C80.0091 52.4692 78.8504 55.1191 79.0733 55.0077" stroke="black" stroke-width="3" stroke-linecap="round"/>
<path d="M77.2699 52.664C76.7506 50.637 73.283 49.9003 71.5734 49.5122C69.4285 49.0253 67.0728 48.2679 64.8841 48.115C60.7457 47.826 56.5323 48.5595 52.4212 48.9402C49.0954 49.2482 45.8346 49.5787 42.5264 50.0824C41.0214 50.3115 39.9783 51.017 38.6054 51.6165C37.7196 52.0033 37.0018 52.9618 36.353 53.6462C35.5219 54.5231 34.6022 55.3094 33.9642 56.3528C32.733 58.3663 31.199 61.1343 31.5182 63.6078C31.843 66.1232 32.283 68.6307 32.6649 71.1383C33.3386 75.5632 39.104 75.9908 42.557 77.2956C44.3888 77.9878 46.1921 78.0048 48.0989 78.2011C49.8746 78.3839 51.6127 78.9151 53.3963 78.8002C55.5309 78.6626 57.6327 78.3322 59.7626 78.0078C61.6147 77.7258 63.4668 77.4438 65.3189 77.1618C67.4607 76.8357 69.6061 77.0713 71.7527 76.7445C72.7896 76.5866 73.6345 76.4715 74.5689 76.0241C75.8952 75.3891 77.5012 74.8387 78.5988 73.8383C79.1578 73.3288 79.4592 73.0164 79.7391 72.3006C80.1981 71.1271 80.7485 69.563 80.9224 68.3095C81.2044 66.2772 81.2601 64.0992 80.9524 62.0784C80.7168 60.5315 80.2951 59.1668 79.9104 57.6972C79.7007 56.8959 78.6264 54.4957 77.8872 54.2568" stroke="black" stroke-width="3" stroke-linecap="round"/>
<path d="M80.7062 70.3926C80.8697 71.21 81.8199 72.1721 82.3017 72.8425C83.3098 74.2451 83.9244 75.8257 84.7825 77.31C85.3828 78.3484 86.1109 79.3491 86.6354 80.3981" stroke="black" stroke-width="3" stroke-linecap="round"/>
<path d="M30.4933 26.8501C30.4933 29.9161 29.3137 32.6401 28.0846 35.4145C26.5386 38.9041 25.0059 42.6488 24.0083 46.3258C23.5657 47.9569 23.2545 49.8296 22.6701 51.3492C21.5454 54.2734 19.7729 57.1886 18.2541 59.9136C16.7912 62.5382 15.4 65.4918 13.5498 67.8706C12.3464 69.4179 11.3378 71.4316 10.6676 73.2748C10.4695 73.8196 10.068 75.245 9.6485 75.5806C9.21096 75.9306 9.42954 77.0334 9 77.2482" stroke="black" stroke-width="3" stroke-linecap="round"/>
<path d="M67.5525 37.3928C67.4612 36.6629 65.8286 37.6374 65.5889 37.8518C64.7747 38.5804 64.0968 38.9552 63.7019 40.0959C63.193 41.5659 63.9878 43.1238 65.0279 44.0484C65.6715 44.6205 67.4339 44.2779 68.241 44.2779C69.9332 44.2779 70.9382 43.964 71.505 42.2634C72.2908 39.9061 71.4491 37.8518 68.9295 37.8518" stroke="black" stroke-width="3" stroke-linecap="round"/>
<path d="M46.2086 36.7042C44.1401 36.7042 42.766 38.8739 42.766 40.9501C42.766 42.298 45.2314 42.8746 46.2086 43.3088C48.5081 44.3309 51.2753 41.3165 50.7859 39.114C50.6499 38.5021 49.5432 38.0866 49.0773 37.7243C48.5333 37.3011 47.1606 37.0019 46.8971 36.4747" stroke="black" stroke-width="3" stroke-linecap="round"/>
<path d="M37.9464 21.557V26.1471" stroke="black" stroke-width="3" stroke-linecap="round"/>
<path d="M42.766 19.262V29.3601" stroke="black" stroke-width="3" stroke-linecap="round"/>
<path d="M46.8971 21.098V24.7701" stroke="black" stroke-width="3" stroke-linecap="round"/>
<path d="M50.7987 19.9505V24.0816" stroke="black" stroke-width="3" stroke-linecap="round"/>
</svg>
