<svg width="64" height="65" viewBox="0 0 64 65" fill="none" xmlns="http://www.w3.org/2000/svg">
<rect y="0.23999" width="64" height="64" rx="32" fill="#FED7AA"/>
<path d="M42.984 40.4391C41.7583 40.4391 41.1092 40.5924 40.7206 41.8556C40.3633 43.0166 40.9911 43.0586 41.699 43.6956C42.3268 44.2606 43.6655 43.7735 44.1377 43.3014C44.5292 42.9098 44.9393 40.8334 44.0355 40.8334" stroke="black" stroke-width="1.92" stroke-linecap="round"/>
<path d="M29.447 39.5192C28.5287 39.5192 28.0563 39.9749 28.0013 40.9649C27.9513 41.8645 28.5614 42.6735 29.5054 42.6735C31.2832 42.6735 31.7024 39.5192 29.7099 39.5192" stroke="black" stroke-width="1.92" stroke-linecap="round"/>
<path d="M41.2755 10.0794C39.6741 10.0794 38.0726 10.0794 36.4711 10.0794C35.3637 10.0794 34.2563 10.0794 33.1489 10.0794C32.8053 10.0794 32.3786 10.0101 32.0464 10.1086C31.6509 10.2258 31.1567 10.3422 30.7613 10.3422C30.3841 10.3422 29.3898 8.0605 29.2134 7.61146C28.6917 6.28354 28.1985 5.95316 26.8477 6.00512C25.6829 6.04992 25.3956 7.96819 25.2706 8.7651C25.1504 9.53137 25.1099 10.3527 25.1099 11.1308C25.1099 11.2125 22.4199 11.0544 22.1163 11.0286C20.9735 10.9313 19.3361 10.7464 18.2757 11.2622C17.5046 11.6373 16.7788 11.977 16.0414 12.3867C15.444 12.7185 14.5306 13.4375 14.3621 14.1536C14.2402 14.6716 14.1966 15.4921 14.7125 15.76C15.8345 16.3425 16.7874 16.8019 18.0128 17.0743C18.3133 17.141 19.2953 17.3716 19.4585 17.045" stroke="black" stroke-width="1.92" stroke-linecap="round"/>
<path d="M41.407 10.3422C41.407 9.37753 41.8228 7.10355 43.0133 6.69145C43.933 6.3731 44.9009 6.39939 45.8682 6.39939C46.9728 6.39939 46.7955 8.23 46.7955 8.94763C46.7955 9.14328 46.6757 10.3308 46.9269 10.3422C48.9229 10.433 50.6168 10.8358 52.5199 11.3644C53.2712 11.5731 54.1142 12.0374 54.8126 12.3867C55.6313 12.796 55.587 13.9773 55.7253 14.7378C56.0373 16.4537 52.3688 16.6508 51.3297 16.6508C50.4704 16.6508 50.8325 17.0856 50.8697 17.7752C50.921 18.724 51.2709 19.9084 51.5561 20.8272C51.9037 21.9474 51.7897 23.1839 51.7897 24.3466C51.7897 26.2646 51.9212 28.1893 51.9212 30.1148C51.9212 31.3743 51.5683 32.2617 51.2932 33.4443C51.2058 33.8203 50.4643 35.5162 50.6069 35.4449" stroke="black" stroke-width="1.92" stroke-linecap="round"/>
<path d="M49.4527 33.945C49.1204 32.6477 46.9011 32.1762 45.8069 31.9278C44.4342 31.6162 42.9266 31.1315 41.5258 31.0336C38.8772 30.8487 36.1807 31.3181 33.5496 31.5617C31.421 31.7589 29.3341 31.9703 27.2169 32.2927C26.2537 32.4394 25.5861 32.8909 24.7075 33.2746C24.1405 33.5221 23.6811 34.1356 23.2659 34.5736C22.734 35.1348 22.1454 35.638 21.7371 36.3058C20.9491 37.5945 19.9673 39.366 20.1717 40.949C20.3795 42.5588 20.6611 44.1636 20.9055 45.7685C21.3367 48.6005 25.0265 48.8741 27.2365 49.7092C28.4088 50.1522 29.563 50.1631 30.7833 50.2887C31.9197 50.4057 33.0321 50.7457 34.1736 50.6721C35.5398 50.5841 36.8849 50.3726 38.248 50.165C39.4334 49.9845 40.6187 49.8041 41.8041 49.6236C43.1748 49.4149 44.5479 49.5657 45.9217 49.3565C46.5853 49.2554 47.1261 49.1818 47.7241 48.8955C48.5729 48.489 49.6007 48.1368 50.3032 47.4965C50.661 47.1704 50.8539 46.9705 51.033 46.5124C51.3268 45.7613 51.679 44.7603 51.7903 43.9581C51.9708 42.6574 52.0064 41.2635 51.8095 39.9702C51.6588 38.9802 51.3888 38.1067 51.1427 37.1662C51.0085 36.6534 50.3209 35.1172 49.8478 34.9644" stroke="black" stroke-width="1.92" stroke-linecap="round"/>
<path d="M51.6519 45.2913C51.7566 45.8144 52.3647 46.4302 52.6731 46.8592C53.3183 47.7568 53.7116 48.7685 54.2608 49.7184C54.645 50.383 55.1109 51.0234 55.4466 51.6948" stroke="black" stroke-width="1.92" stroke-linecap="round"/>
<path d="M19.5157 17.4241C19.5157 19.3863 18.7608 21.1297 17.9741 22.9053C16.9847 25.1386 16.0038 27.5352 15.3653 29.8885C15.0821 30.9324 14.8829 32.131 14.5089 33.1035C13.7891 34.975 12.6547 36.8407 11.6826 38.5847C10.7464 40.2644 9.85603 42.1548 8.6719 43.6772C7.90171 44.6674 7.25623 45.9562 6.82726 47.1359C6.70047 47.4846 6.44356 48.3968 6.17505 48.6116C5.89503 48.8356 6.03492 49.5414 5.76001 49.6789" stroke="black" stroke-width="1.92" stroke-linecap="round"/>
<path d="M43.2336 24.1714C43.1752 23.7043 42.1303 24.3279 41.9769 24.4652C41.4558 24.9315 41.0219 25.1713 40.7692 25.9014C40.4435 26.8422 40.9522 27.8393 41.6179 28.431C42.0297 28.7971 43.1577 28.5779 43.6742 28.5779C44.7572 28.5779 45.4004 28.377 45.7632 27.2886C46.2661 25.7799 45.7274 24.4652 44.1149 24.4652" stroke="black" stroke-width="1.92" stroke-linecap="round"/>
<path d="M29.5735 23.7307C28.2497 23.7307 27.3702 25.1193 27.3702 26.448C27.3702 27.3107 28.9481 27.6797 29.5735 27.9576C31.0452 28.6117 32.8162 26.6825 32.503 25.273C32.4159 24.8813 31.7076 24.6154 31.4095 24.3835C31.0613 24.1127 30.1828 23.9212 30.0141 23.5838" stroke="black" stroke-width="1.92" stroke-linecap="round"/>
<path d="M24.2857 14.0365V16.9741" stroke="black" stroke-width="1.92" stroke-linecap="round"/>
<path d="M27.3702 12.5676V19.0305" stroke="black" stroke-width="1.92" stroke-linecap="round"/>
<path d="M30.0141 13.7427V16.0929" stroke="black" stroke-width="1.92" stroke-linecap="round"/>
<path d="M32.5112 13.0083V15.6522" stroke="black" stroke-width="1.92" stroke-linecap="round"/>
</svg>
