<svg width="64" height="64" viewBox="0 0 64 64" fill="none" xmlns="http://www.w3.org/2000/svg">
<rect width="64" height="64" rx="32" fill="#FED7AA"/>
<path d="M42.344 42.7593C41.1183 42.7593 40.4692 42.9126 40.0805 44.1758C39.7233 45.3367 40.3511 45.3787 41.059 46.0158C41.6867 46.5808 43.0255 46.0936 43.4977 45.6215C43.8892 45.2299 44.2993 43.1536 43.3954 43.1536" stroke="black" stroke-width="1.92" stroke-linecap="round"/>
<path d="M28.807 41.8392C27.8886 41.8392 27.4163 42.2949 27.3613 43.2849C27.3113 44.1845 27.9214 44.9935 28.8654 44.9935C30.6432 44.9935 31.0624 41.8392 29.0698 41.8392" stroke="black" stroke-width="1.92" stroke-linecap="round"/>
<path d="M40.6356 12.3993C39.0341 12.3993 37.4326 12.3993 35.8311 12.3993C34.7237 12.3993 33.6163 12.3993 32.5089 12.3993C32.1654 12.3993 31.7386 12.3301 31.4064 12.4285C31.0109 12.5457 30.5167 12.6622 30.1213 12.6622C29.7441 12.6622 28.7498 10.3805 28.5734 9.9314C28.0517 8.60348 27.5585 8.27311 26.2077 8.32506C25.0429 8.36986 24.7556 10.2881 24.6306 11.085C24.5104 11.8513 24.4699 12.6726 24.4699 13.4507C24.4699 13.5325 21.7799 13.3744 21.4763 13.3485C20.3335 13.2513 18.6961 13.0663 17.6357 13.5822C16.8646 13.9573 16.1389 14.2969 15.4014 14.7066C14.8041 15.0385 13.8906 15.7574 13.7221 16.4736C13.6002 16.9915 13.5566 17.812 14.0725 18.0799C15.1945 18.6625 16.1474 19.1219 17.3728 19.3942C17.6733 19.461 18.6553 19.6915 18.8186 19.365" stroke="black" stroke-width="1.92" stroke-linecap="round"/>
<path d="M40.767 12.6622C40.767 11.6975 41.1828 9.42356 42.3733 9.01146C43.293 8.69311 44.2609 8.7194 45.2282 8.7194C46.3328 8.7194 46.1555 10.55 46.1555 11.2676C46.1555 11.4633 46.0357 12.6508 46.2869 12.6622C48.283 12.753 49.9768 13.1558 51.8799 13.6844C52.6312 13.8931 53.4742 14.3575 54.1726 14.7067C54.9913 15.116 54.947 16.2973 55.0853 17.0578C55.3973 18.7737 51.7288 18.9708 50.6898 18.9708C49.8304 18.9708 50.1925 19.4056 50.2298 20.0952C50.2811 21.044 50.6309 22.2284 50.9161 23.1472C51.2637 24.2674 51.1498 25.5039 51.1498 26.6666C51.1498 28.5846 51.2812 30.5093 51.2812 32.4348C51.2812 33.6943 50.9283 34.5817 50.6533 35.7643C50.5658 36.1403 49.8243 37.8363 49.9669 37.7649" stroke="black" stroke-width="1.92" stroke-linecap="round"/>
<path d="M48.8127 36.265C48.4804 34.9677 46.2611 34.4962 45.167 34.2478C43.7943 33.9362 42.2866 33.4515 40.8859 33.3536C38.2373 33.1687 35.5407 33.6381 32.9096 33.8817C30.781 34.0789 28.6942 34.2904 26.5769 34.6127C25.6137 34.7594 24.9461 35.2109 24.0675 35.5946C23.5006 35.8421 23.0412 36.4556 22.626 36.8936C22.094 37.4548 21.5054 37.958 21.0971 38.6258C20.3091 39.9145 19.3273 41.686 19.5317 43.269C19.7395 44.8788 20.0212 46.4836 20.2655 48.0885C20.6967 50.9205 24.3866 51.1941 26.5965 52.0292C27.7689 52.4722 28.923 52.4831 30.1433 52.6087C31.2797 52.7257 32.3921 53.0657 33.5336 52.9921C34.8998 52.9041 36.2449 52.6926 37.6081 52.485C38.7934 52.3046 39.9788 52.1241 41.1641 51.9436C42.5349 51.7349 43.9079 51.8857 45.2817 51.6765C45.9454 51.5754 46.4861 51.5018 47.0841 51.2155C47.9329 50.809 48.9608 50.4568 49.6633 49.8165C50.021 49.4905 50.2139 49.2905 50.3931 48.8324C50.6868 48.0813 51.039 47.0804 51.1503 46.2781C51.3308 44.9774 51.3665 43.5835 51.1695 42.2902C51.0188 41.3002 50.7488 40.4267 50.5027 39.4862C50.3685 38.9734 49.6809 37.4372 49.2078 37.2844" stroke="black" stroke-width="1.92" stroke-linecap="round"/>
<path d="M42.5925 29.2308C42.6783 29.2415 42.627 29.662 42.8297 29.4086C43.0417 29.1436 42.8769 29.1122 42.5925 29.1122" stroke="black" stroke-width="1.92" stroke-linecap="round"/>
<path d="M28.2439 29.5865C27.9823 29.5865 28.0373 29.7626 28.1253 29.5865" stroke="black" stroke-width="1.92" stroke-linecap="round"/>
<path d="M51.012 47.6112C51.1166 48.1344 51.7247 48.7501 52.0331 49.1791C52.6783 50.0768 53.0716 51.0884 53.6208 52.0383C54.005 52.7029 54.471 53.3434 54.8066 54.0147" stroke="black" stroke-width="1.92" stroke-linecap="round"/>
<path d="M18.8757 19.744C18.8757 21.7063 18.1208 23.4496 17.3341 25.2252C16.3447 27.4586 15.3638 29.8552 14.7253 32.2085C14.4421 33.2524 14.2429 34.4509 13.8688 35.4234C13.149 37.2949 12.0147 39.1606 11.0426 40.9046C10.1063 42.5844 9.21601 44.4747 8.03189 45.9971C7.2617 46.9874 6.61622 48.2762 6.18725 49.4558C6.06046 49.8045 5.80354 50.7167 5.53504 50.9316C5.25501 51.1556 5.3949 51.8613 5.12 51.9988" stroke="black" stroke-width="1.92" stroke-linecap="round"/>
</svg>
