<svg width="65" height="65" viewBox="0 0 65 65" fill="none" xmlns="http://www.w3.org/2000/svg">
<rect x="0.039978" y="0.559998" width="64" height="64" rx="32" fill="#C4B5FD"/>
<path d="M25.2903 16.8323C29.9518 16.8323 34.6751 15.4981 39.3093 15.4981C39.5677 15.4981 40.4399 15.6805 40.4675 15.2942C40.5091 14.7119 40.6641 13.8796 40.9679 13.367C41.3955 12.6453 41.6439 12.1185 42.3855 11.6621C44.3772 10.4364 47.9329 10.3434 49.4738 12.533C50.9218 14.5908 51.3084 17.3724 51.3084 19.8344" stroke="black" stroke-width="1.92" stroke-linecap="round"/>
<path d="M46.8053 20.0012C46.8053 21.1275 47.6932 19.8344 46.8887 19.8344C46.6427 19.8344 46.4807 20.2539 46.7312 20.3255C47.1194 20.4364 47.2961 19.9964 46.9721 19.8344" stroke="black" stroke-width="1.92" stroke-linecap="round"/>
<path d="M24.6233 17.3327C24.3853 17.3029 23.9262 16.8682 23.6874 16.7397C23.0114 16.3756 22.243 15.8731 21.4544 15.8316C19.9721 15.7536 18.6528 15.8702 17.2848 16.4987C14.3393 17.8521 14.116 20.9469 14.116 23.6704" stroke="black" stroke-width="1.92" stroke-linecap="round"/>
<path d="M22.1215 22.8365C22.1215 22.6564 21.7718 21.7671 21.6304 22.262C21.5355 22.5943 21.7879 23.3405 21.7879 22.6697" stroke="black" stroke-width="1.92" stroke-linecap="round"/>
<path d="M49.2414 26.5063C47.8819 26.5692 46.5688 26.5002 45.2352 26.5249C43.5259 26.5566 41.7607 26.2511 40.0284 26.256C37.9021 26.262 35.8006 26.2942 33.6716 26.3928C30.7493 26.5282 27.929 27.0488 25.246 28.3229C24.3529 28.7471 23.1553 29.0035 22.4144 29.6692C21.974 30.0649 21.1049 30.6296 20.5579 30.8405" stroke="black" stroke-width="1.92" stroke-linecap="round"/>
<path d="M14.116 24.1707C14.0621 24.6558 13.5101 25.3154 13.2821 25.7551C12.9511 26.3934 12.5926 27.0916 12.3648 27.7751C11.7244 29.6962 11.3151 31.5515 11.2807 33.5847C11.238 36.1056 10.4251 39.5859 11.6513 41.9701C12.2156 43.0674 13.797 46.186 15.2835 46.186" stroke="black" stroke-width="1.92" stroke-linecap="round"/>
<path d="M52.6427 21.3355C52.6084 21.3355 53.1325 21.2814 53.2727 21.632C53.5405 22.3014 54.0401 22.884 54.3939 23.5129C55.7783 25.9741 57.393 29.1529 57.4793 32.0466C57.5662 34.9567 57.985 38.3458 56.6454 41.025C56.0186 42.2787 55.5141 43.4939 54.746 44.6757C54.5059 45.045 54.3007 45.6857 53.8101 45.6857" stroke="black" stroke-width="1.92" stroke-linecap="round"/>
<path d="M53.6434 45.6857C53.6434 48.0093 54.2193 50.4755 55.0147 52.6535C55.108 52.909 55.4873 54.5065 55.6448 54.1916" stroke="black" stroke-width="1.92" stroke-linecap="round"/>
<path d="M15.7838 46.3528C13.5076 48.6289 11.0791 51.6622 10.28 54.8587" stroke="black" stroke-width="1.92" stroke-linecap="round"/>
<path d="M11.6143 30.842C14.2985 30.842 17.3677 30.6715 19.6013 32.4265C21.8747 34.2128 22.4625 37.9615 22.6126 40.6637C22.6567 41.4566 22.7911 42.5898 22.381 43.3136C21.8572 44.238 20.7173 45.2395 19.7866 45.7227C18.8438 46.2122 17.669 46.5196 16.6177 46.5196" stroke="black" stroke-width="1.92" stroke-linecap="round"/>
<path d="M55.9783 27.5064C53.9451 27.5064 52.0071 28.0798 50.8081 29.8784C49.7421 31.4774 48.6399 33.7467 48.6399 35.7158C48.6399 36.8424 48.5964 37.8502 48.9735 38.9217C49.32 39.9066 49.7891 41.3836 50.4745 42.1833C51.1897 43.0176 52.2458 44.1846 53.4766 44.1846" stroke="black" stroke-width="1.92" stroke-linecap="round"/>
</svg>
