<svg width="100" height="100" viewBox="0 0 100 100" fill="none" xmlns="http://www.w3.org/2000/svg">
<rect width="100" height="100" rx="50" fill="#C4B5FD"/>
<path d="M39.4537 25.4255C46.7373 25.4255 54.1175 23.3407 61.3584 23.3407C61.7621 23.3407 63.125 23.6257 63.1681 23.0222C63.2331 22.1124 63.4752 20.8119 63.9499 20.0109C64.6181 18.8834 65.0061 18.0601 66.165 17.347C69.2769 15.432 74.8327 15.2865 77.2404 18.7079C79.5029 21.9231 80.1069 26.2695 80.1069 30.1163" stroke="black" stroke-width="3" stroke-linecap="round"/>
<path d="M73.0708 30.3769C73.0708 32.1367 74.4581 30.1163 73.2011 30.1163C72.8169 30.1163 72.5636 30.7718 72.955 30.8836C73.5617 31.0569 73.8377 30.3694 73.3314 30.1163" stroke="black" stroke-width="3" stroke-linecap="round"/>
<path d="M38.4113 26.2073C38.0396 26.1608 37.3222 25.4816 36.9491 25.2807C35.8928 24.7119 34.6922 23.9267 33.46 23.8619C31.1439 23.74 29.0825 23.9222 26.9451 24.9043C22.3426 27.0189 21.9937 31.8545 21.9937 36.11" stroke="black" stroke-width="3" stroke-linecap="round"/>
<path d="M34.5024 34.807C34.5024 34.5255 33.956 33.1361 33.7351 33.9094C33.5867 34.4286 33.9812 35.5946 33.9812 34.5464" stroke="black" stroke-width="3" stroke-linecap="round"/>
<path d="M76.8771 40.5411C74.753 40.6395 72.7013 40.5316 70.6174 40.5702C67.9467 40.6197 65.1886 40.1423 62.4818 40.15C59.1595 40.1595 55.8759 40.2097 52.5494 40.3638C47.9833 40.5754 43.5765 41.3888 39.3844 43.3796C37.989 44.0424 36.1176 44.443 34.96 45.4832C34.2719 46.1015 32.9139 46.9837 32.0592 47.3133" stroke="black" stroke-width="3" stroke-linecap="round"/>
<path d="M21.9937 36.8918C21.9095 37.6498 21.047 38.6803 20.6908 39.3675C20.1736 40.3647 19.6134 41.4557 19.2575 42.5236C18.2569 45.5253 17.6174 48.4242 17.5636 51.6011C17.4968 55.54 16.2268 60.978 18.1427 64.7033C19.0245 66.4179 21.4953 71.2906 23.8179 71.2906" stroke="black" stroke-width="3" stroke-linecap="round"/>
<path d="M82.1917 32.4617C82.1382 32.4617 82.9571 32.3772 83.1762 32.9249C83.5946 33.9709 84.3753 34.8813 84.928 35.8639C87.0912 39.7096 89.6141 44.6764 89.749 49.1978C89.8848 53.7448 90.5392 59.0404 88.4461 63.2266C87.4666 65.1855 86.6784 67.0842 85.4781 68.9308C85.1031 69.5078 84.7824 70.5089 84.0159 70.5089" stroke="black" stroke-width="3" stroke-linecap="round"/>
<path d="M83.7553 70.5089C83.7553 74.1395 84.6552 77.993 85.898 81.396C86.0438 81.7953 86.6364 84.2914 86.8825 83.7993" stroke="black" stroke-width="3" stroke-linecap="round"/>
<path d="M24.5997 71.5513C21.0432 75.1078 17.2486 79.8472 16 84.8417" stroke="black" stroke-width="3" stroke-linecap="round"/>
<path d="M18.0848 47.3157C22.2789 47.3157 27.0745 47.0492 30.5645 49.7914C34.1168 52.5825 35.0352 58.4399 35.2697 62.662C35.3386 63.901 35.5487 65.6717 34.9078 66.8026C34.0894 68.2468 32.3082 69.8117 30.854 70.5668C29.381 71.3317 27.5452 71.8119 25.9027 71.8119" stroke="black" stroke-width="3" stroke-linecap="round"/>
<path d="M87.4037 42.1038C84.2267 42.1038 81.1987 42.9997 79.3251 45.81C77.6595 48.3085 75.9374 51.8542 75.9374 54.9309C75.9374 56.6912 75.8695 58.2659 76.4586 59.9402C77 61.479 77.733 63.7869 78.804 65.0363C79.9214 66.34 81.5716 68.1635 83.4947 68.1635" stroke="black" stroke-width="3" stroke-linecap="round"/>
</svg>
