<svg width="64" height="64" viewBox="0 0 64 64" fill="none" xmlns="http://www.w3.org/2000/svg">
<rect width="64" height="64" rx="32" fill="#C4B5FD"/>
<path d="M23.9702 16.2723C28.6317 16.2723 33.355 14.9381 37.9892 14.9381C38.2475 14.9381 39.1198 15.1205 39.1474 14.7342C39.189 14.1519 39.344 13.3196 39.6478 12.807C40.0754 12.0853 40.3237 11.5585 41.0654 11.1021C43.057 9.87644 46.6128 9.78337 48.1537 11.973C49.6017 14.0308 49.9883 16.8124 49.9883 19.2744" stroke="black" stroke-width="1.92" stroke-linecap="round"/>
<path d="M45.4853 19.4412C45.4853 20.5675 46.3731 19.2744 45.5687 19.2744C45.3227 19.2744 45.1606 19.6939 45.4111 19.7655C45.7994 19.8764 45.9761 19.4364 45.6521 19.2744" stroke="black" stroke-width="1.92" stroke-linecap="round"/>
<path d="M23.3032 16.7727C23.0653 16.7429 22.6061 16.3082 22.3674 16.1797C21.6913 15.8157 20.9229 15.3131 20.1343 15.2716C18.652 15.1936 17.3327 15.3102 15.9648 15.9387C13.0192 17.2921 12.7959 20.3869 12.7959 23.1104" stroke="black" stroke-width="1.92" stroke-linecap="round"/>
<path d="M20.8015 22.2765C20.8015 22.0964 20.4518 21.2071 20.3104 21.702C20.2155 22.0343 20.4679 22.7805 20.4679 22.1097" stroke="black" stroke-width="1.92" stroke-linecap="round"/>
<path d="M19.1338 28.781C20.4947 28.781 21.8032 28.9107 23.1366 28.9478C24.8455 28.9952 26.5946 29.3821 28.3253 29.4574C30.4496 29.5497 32.5504 29.6149 34.6816 29.6149C37.607 29.6149 40.4485 29.2254 43.1875 28.0768C44.0993 27.6944 45.3075 27.4937 46.0784 26.863C46.5366 26.4881 47.4309 25.9643 47.9871 25.7789" stroke="black" stroke-width="1.92" stroke-linecap="round"/>
<path d="M12.796 23.6107C12.7421 24.0959 12.1901 24.7554 11.9621 25.1952C11.6312 25.8334 11.2726 26.5316 11.0448 27.2151C10.4044 29.1362 9.99519 30.9915 9.96073 33.0247C9.91801 35.5456 9.10519 39.0259 10.3314 41.4101C10.8957 42.5074 12.477 45.626 13.9635 45.626" stroke="black" stroke-width="1.92" stroke-linecap="round"/>
<path d="M51.3227 20.7754C51.2884 20.7754 51.8125 20.7214 51.9527 21.0719C52.2205 21.7414 52.7201 22.324 53.0739 22.9529C54.4583 25.4141 56.073 28.5929 56.1593 31.4866C56.2462 34.3966 56.665 37.7858 55.3254 40.465C54.6986 41.7187 54.1941 42.9339 53.426 44.1157C53.1859 44.485 52.9807 45.1257 52.4901 45.1257" stroke="black" stroke-width="1.92" stroke-linecap="round"/>
<path d="M52.3235 45.1257C52.3235 47.4493 52.8994 49.9155 53.6948 52.0935C53.7881 52.349 54.1674 53.9465 54.3249 53.6316" stroke="black" stroke-width="1.92" stroke-linecap="round"/>
<path d="M14.4638 45.7928C12.1876 48.069 9.75909 51.1022 8.95996 54.2987" stroke="black" stroke-width="1.92" stroke-linecap="round"/>
<path d="M10.2942 30.282C12.9784 30.282 16.0476 30.1115 18.2812 31.8665C20.5547 33.6528 21.1424 37.4015 21.2926 40.1037C21.3366 40.8966 21.4711 42.0298 21.0609 42.7537C20.5371 43.678 19.3972 44.6795 18.4665 45.1627C17.5238 45.6522 16.3489 45.9596 15.2977 45.9596" stroke="black" stroke-width="1.92" stroke-linecap="round"/>
<path d="M54.6583 26.9464C52.625 26.9464 50.6871 27.5198 49.4881 29.3184C48.422 30.9174 47.3199 33.1867 47.3199 35.1558C47.3199 36.2824 47.2764 37.2902 47.6535 38.3617C48 39.3466 48.4691 40.8236 49.1545 41.6233C49.8697 42.4576 50.9258 43.6246 52.1566 43.6246" stroke="black" stroke-width="1.92" stroke-linecap="round"/>
</svg>
