<svg width="64" height="64" viewBox="0 0 64 64" fill="none" xmlns="http://www.w3.org/2000/svg">
<rect width="64" height="64" rx="32" fill="#D1FAE5"/>
<path d="M35.8607 22.4121C35.917 22.4061 36.1337 21.6315 35.9334 21.5827C35.554 21.4903 35.6277 22.3653 35.7879 22.4044C36.0763 22.4746 36.1851 21.854 35.5333 21.854" stroke="black" stroke-width="1.92" stroke-linecap="round"/>
<path d="M47.1542 22.4121C48.1708 22.4121 49.5023 22.2347 50.4277 22.6292C51.9755 23.2889 53.0465 24.786 53.0465 26.3189" stroke="black" stroke-width="1.92" stroke-linecap="round"/>
<path d="M52.3918 23.3888C52.9899 23.3888 53.8183 23.2625 54.3923 23.4198C55.0731 23.6063 55.6361 24.0316 56.3201 24.226" stroke="black" stroke-width="1.92" stroke-linecap="round"/>
<path d="M40.7708 28.6908C41.9334 28.6908 42.7651 27.6618 43.5533 26.9545C45.153 25.519 45.6811 23.827 45.6811 21.916C45.6811 20.9487 45.7064 19.8205 44.8627 19.0635C43.6755 17.9981 42.3095 17.1358 40.8617 16.3504C37.6642 14.6158 33.275 15.0172 29.6773 15.0172C29.0329 15.0172 28.1042 14.8699 27.4767 15.0482C25.9774 15.4742 24.5479 15.9948 23.0575 16.4745C20.9452 17.1543 19.0167 18.1224 17.3561 19.42C15.2678 21.0519 13.4171 23.3043 12.6004 25.567C12.2378 26.5716 11.4238 27.707 10.8182 28.6288C10.0255 29.8355 9.98233 31.1286 9.75431 32.4503C9.28455 35.1735 9.88107 37.9919 11.6275 40.3181C12.8559 41.9543 14.8993 43.8813 17.2015 44.4264C20.647 45.2423 25.2213 46.5409 26.04 50.0308C26.294 51.1131 26.3674 52.146 26.3674 53.2476C26.3674 54.4324 25.9708 55.19 25.4581 56.263C24.908 57.4139 23.4513 59.6531 22.1118 60.224" stroke="black" stroke-width="1.92" stroke-linecap="round"/>
<path d="M40.9346 28.4118C39.2675 28.4118 37.4344 28.5513 35.697 28.5513C34.4969 28.5513 33.5042 28.1401 32.3871 27.8227C31.6227 27.6054 30.6837 27.5213 29.9683 27.2645C29.288 27.0203 28.2137 27.1153 27.5132 27.2645C26.6658 27.4451 25.0166 27.7076 24.5307 28.4118C24.3151 28.7241 23.9397 29.0296 23.6759 29.3187C23.3283 29.6997 23.2884 30.3599 23.1303 30.8147C23.0848 30.9458 22.9906 31.7647 23.2485 31.4349C23.5461 31.0543 23.2576 32.3495 23.2576 32.8069C23.2576 33.4228 24.2788 33.9955 24.8126 34.3494C25.3351 34.6959 25.5801 35.1208 26.2038 35.3571C26.7836 35.5768 27.2156 35.664 27.7496 35.9928C29.5287 37.0881 31.2941 38.064 33.0963 39.1011C35.4618 40.4622 37.662 41.5281 39.6888 43.2559C40.2001 43.6917 40.3759 44.3365 40.6436 44.907C40.9115 45.478 41.3307 45.9553 41.5074 46.5581C41.9872 48.1938 42.5713 49.7856 42.5713 51.488C42.5713 53.1388 42.2275 54.3321 41.4165 55.8444C40.9772 56.6637 40.6305 57.4965 40.1526 58.2706C39.9016 58.6771 39.6314 59.0918 39.4615 59.5264" stroke="black" stroke-width="1.92" stroke-linecap="round"/>
</svg>
