<svg width="140" height="140" viewBox="0 0 140 140" fill="none" xmlns="http://www.w3.org/2000/svg">
<rect x="58.1458" y="0.290039" width="100" height="100" rx="50" transform="rotate(35.3491 58.1458 0.290039)" fill="#D1FAE5"/>
<path d="M91.319 75.2886C92.8033 76.3414 94.9582 75.5534 96.7158 75.2079C100.283 74.5068 102.755 72.451 104.785 69.5891C105.812 68.1404 107.043 66.4738 106.77 64.5759C106.386 61.9053 105.558 59.3769 104.544 56.8897C102.305 51.3963 96.275 48.0226 91.6818 44.7646C90.8593 44.1811 89.8301 43.1195 88.8396 42.8183C86.4729 42.0986 84.0949 41.5836 81.6826 40.9524C78.2637 40.0577 74.7732 39.7611 71.2747 40.2007C66.875 40.7535 62.1197 42.4508 58.6734 45.0999C57.1433 46.276 54.8978 47.2393 53.1455 48.0714C50.8516 49.1607 49.4228 51.0581 47.7277 52.8311C44.2351 56.4839 42.0026 61.2451 41.7611 66.3104C41.5912 69.8731 42.153 74.6095 44.5131 77.5107C48.045 81.8527 52.5053 87.9399 49.8433 93.9078C49.0177 95.7587 48.0142 97.372 46.8439 99.0219C45.5854 100.796 44.2743 101.572 42.4798 102.714C40.5549 103.94 36.3166 105.974 34 105.616M91.8245 75.0188C89.6962 73.5092 87.2077 72.0581 84.9896 70.4848C83.4575 69.398 82.627 67.8832 81.538 66.3962C80.7929 65.3787 79.6835 64.4023 79.0429 63.37C78.4338 62.3882 76.9615 61.5575 75.9086 61.1467C74.6348 60.6498 72.2506 59.5493 70.8822 60.1639C70.2752 60.4365 69.4714 60.554 68.8275 60.7481C67.979 61.0039 67.2268 61.9565 66.5417 62.4945C66.3443 62.6496 65.3542 63.7907 66.0339 63.5303C66.8181 63.2299 65.0738 64.9083 64.588 65.5933C63.9337 66.5157 64.629 68.2981 64.9345 69.3115C65.2335 70.3035 65.0949 71.1619 65.6401 72.0805C66.147 72.9346 66.6059 73.4564 66.9384 74.4323C68.0461 77.6837 69.2631 80.7441 70.4624 83.9293C72.0363 88.1097 73.7129 91.6985 74.4651 96.1216C74.6548 97.2373 74.1944 98.3621 73.9301 99.4589C73.6656 100.557 73.6936 101.651 73.279 102.714C72.1538 105.598 71.2086 108.511 69.4001 111.06C67.6465 113.533 65.9399 115.008 63.298 116.539C61.8668 117.368 60.5396 118.301 59.107 119.028C58.3548 119.409 57.5694 119.786 56.8908 120.283M92.1392 63.7227L97.1963 63.7227M94.0121 87.3226C94.1177 86.3725 94.8899 85.1012 95.2088 84.1801C95.5287 83.2559 95.6978 82.4396 95.6978 81.4747C95.6978 80.4996 95.6169 79.6309 95.5001 78.6964C95.4063 77.9453 94.9486 77.196 94.9486 76.4592M99.2566 88.821C99.2566 87.1264 99.4248 82.2655 96.8217 82.2655" stroke="black" stroke-width="3" stroke-linecap="round"/>
</svg>
