<svg width="65" height="66" viewBox="0 0 65 66" fill="none" xmlns="http://www.w3.org/2000/svg">
<rect x="0.919922" y="0.559998" width="64" height="64" rx="32" fill="#D1FAE5"/>
<path d="M46.5642 35.9447C47.5141 36.6185 48.8932 36.1142 50.0181 35.8931C52.3012 35.4443 53.883 34.1286 55.1822 32.297C55.8398 31.3699 56.6276 30.3032 56.4529 29.0886C56.2072 27.3794 55.6773 25.7612 55.0284 24.1694C53.5951 20.6536 49.736 18.4945 46.7964 16.4093C46.2699 16.0359 45.6113 15.3565 44.9773 15.1637C43.4626 14.7031 41.9407 14.3735 40.3968 13.9695C38.2088 13.3969 35.9749 13.2071 33.7358 13.4884C30.92 13.8422 27.8766 14.9285 25.671 16.6239C24.6917 17.3766 23.2546 17.9931 22.1331 18.5257C20.665 19.2228 19.7506 20.4372 18.6657 21.5719C16.4305 23.9097 15.0017 26.9569 14.8471 30.1986C14.7384 32.4788 15.0979 35.5101 16.6084 37.3669C18.8688 40.1457 21.7234 44.0415 20.0197 47.861C19.4913 49.0456 18.8491 50.0781 18.1001 51.134C17.2946 52.2696 16.4556 52.7659 15.3071 53.4971C14.0752 54.2815 11.3626 55.5834 9.88 55.3543M46.8877 35.772C45.5256 34.8059 43.9329 33.8772 42.5133 32.8702C41.5328 32.1747 41.0013 31.2052 40.3043 30.2535C39.8274 29.6023 39.1174 28.9775 38.7075 28.3168C38.3176 27.6884 37.3754 27.1568 36.7015 26.8939C35.8863 26.5758 34.3604 25.8715 33.4846 26.2649C33.0962 26.4393 32.5817 26.5145 32.1696 26.6388C31.6266 26.8025 31.1451 27.4121 30.7067 27.7565C30.5804 27.8557 29.9467 28.586 30.3817 28.4194C30.8836 28.2271 29.7673 29.3013 29.4563 29.7397C29.0376 30.33 29.4825 31.4708 29.6781 32.1194C29.8695 32.7543 29.7808 33.3036 30.1297 33.8915C30.4541 34.4381 30.7478 34.7721 30.9606 35.3967C31.6695 37.4776 32.4484 39.4362 33.2159 41.4747C34.2233 44.1502 35.2963 46.447 35.7777 49.2778C35.8991 49.9918 35.6044 50.7117 35.4353 51.4137C35.266 52.1162 35.2839 52.8166 35.0186 53.4968C34.2984 55.3427 33.6935 57.207 32.5361 58.8387C31.4138 60.4209 30.3216 61.3654 28.6307 62.3449C27.7147 62.8755 26.8653 63.4728 25.9485 63.9378C25.4671 64.1819 24.9644 64.4228 24.5301 64.7409M47.0891 28.5425L50.3256 28.5425M48.2878 43.6465C48.3553 43.0384 48.8496 42.2248 49.0536 41.6353C49.2584 41.0438 49.3666 40.5213 49.3666 39.9038C49.3666 39.2797 49.3148 38.7237 49.2401 38.1257C49.18 37.645 48.8871 37.1654 48.8871 36.6939M51.6442 44.6054C51.6442 43.5209 51.7519 40.4099 50.0859 40.4099" stroke="black" stroke-width="1.92" stroke-linecap="round"/>
</svg>
